<?xml version="1.0" encoding="utf-8"?>
<!-- Generator: Adobe Illustrator 21.1.0, SVG Export Plug-In . SVG Version: 6.00 Build 0)  -->
<svg version="1.1" id="Ebene_1" xmlns="http://www.w3.org/2000/svg" xmlns:xlink="http://www.w3.org/1999/xlink" x="0px" y="0px"
	 viewBox="0 0 640 229.7" style="enable-background:new 0 0 640 229.7;" xml:space="preserve">
<style type="text/css">
	.st0{fill:#FFFFFF;}
	.st1{clip-path:url(#SVGID_2_);}
</style>
<title>smartFLOW</title>
<polygon class="st0" points="319.8,0 346.2,26.4 346.2,0 "/>
<g>
	<defs>
		<rect id="SVGID_1_" width="640" height="229.9"/>
	</defs>
	<clipPath id="SVGID_2_">
		<use xlink:href="#SVGID_1_"  style="overflow:visible;"/>
	</clipPath>
	<g class="st1">
		<path class="st0" d="M50.1,15.1C48.6,4.2,43.5,0,31.3,0H19C10.8,0,7.7,0.8,4.6,3.3C1.7,5.6,0.3,9.3,0.3,14.2S1.7,22.7,4.6,25
			c3.1,2.5,6.2,3.3,14.4,3.3h10.8c6.9,0,9.3,0.3,11.1,1.6c1.6,1,2.5,3.3,2.5,6.2s-0.9,5.1-2.5,6.2C39,43.6,36.4,44,29.8,44h-8.9
			C10.8,44,8.1,42,7.1,33.9l-6.9,1.3c1.4,11,6.6,15.1,18.8,15.1h12.6c8.2,0,11.3-0.8,14.4-3.3c2.8-2.3,4.3-5.9,4.3-10.8
			s-1.4-8.6-4.3-11C43,22.6,40,22,31.6,22H20.9c-6.6,0-9.3-0.4-11.1-1.6c-1.6-1-2.6-3.3-2.6-6.2s1-5.2,2.6-6.2
			c1.8-1.2,4.5-1.6,11.1-1.6h8.5c10.1,0,12.8,2,13.8,10L50.1,15.1z"/>
		<path class="st0" d="M104.4,50.3h6.9V20.2c0-11.3,2.6-13.9,13.9-13.9h2.4c11.3,0,13.9,2.6,13.9,13.9v30.1h6.9V18.9
			c0-7.1-1.2-11.1-4.4-14.3S136.6,0,129.5,0h-6.2c-7.8,0-11.9,1.5-15.4,5.7C104.3,1.5,100.3,0,92.4,0H67.3v50.3h6.9v-44h16.3
			c11.3,0,13.9,2.6,13.9,13.9L104.4,50.3L104.4,50.3z"/>
		<path class="st0" d="M208.5,44h-22.6c-11.3,0-13.9-2.6-13.9-13.9v-9.9c0-11.3,2.6-13.9,13.9-13.9h22.6V44z M215.4,50.3V0H184
			c-7.1,0-11.2,1.3-14.4,4.5s-4.4,7.3-4.4,14.3v12.6c0,7.1,1.2,11.1,4.4,14.3s7.3,4.5,14.4,4.5L215.4,50.3L215.4,50.3z"/>
		<path class="st0" d="M276.8,15.1c-0.6-5.3-1.7-7.9-4.3-10.6C269.2,1.3,265.1,0,258,0h-25.1v50.3h6.9v-44h16.3
			c10.2,0,13.1,2.2,13.8,10.1L276.8,15.1z"/>
		<path class="st0" d="M309.6,0h-28.3v6.3h6.3V32c0.1,7.5,1.2,11.1,4.4,14.3s7.4,4.5,14.5,4.5h9.7l-6.3-6.3h-1.5
			c-11.1,0-14.1-2.7-14-12.5V6.3h21.4L309.6,0z"/>
		<path class="st0" d="M555.3,229.9h15.3L640,91.6h-24.8l-52.3,110.1L510.6,91.6h-24.8l27.5,55l-26.2,55.2L434.8,91.6H410
			l69.6,138.3h15.1l30.4-60.1L555.3,229.9z M292.2,137.1c0-3.2,0.1-5.9,0.2-8.2c0.1-1.9,0.3-3.8,0.6-5.7c0.2-1.4,0.6-2.7,1.2-3.9
			c0.5-1.1,1.2-2,2.1-2.9c0.8-0.8,1.7-1.5,2.7-2.1c1.2-0.6,2.5-1,3.8-1.2c1.9-0.3,3.9-0.5,5.8-0.6c2.3-0.1,5.1-0.2,8.4-0.2h44
			c3.3,0,6.1,0.1,8.4,0.2c1.9,0.1,3.9,0.3,5.8,0.6c1.3,0.2,2.6,0.6,3.8,1.2c1,0.6,1.9,1.3,2.7,2.1c0.8,0.8,1.5,1.8,2.1,2.9
			c0.6,1.2,1,2.6,1.2,3.9c0.3,1.9,0.5,3.8,0.6,5.7c0.1,2.3,0.2,5,0.2,8.2V184c0,3.2-0.1,5.9-0.2,8.2c-0.1,1.9-0.3,3.8-0.6,5.7
			c-0.2,1.4-0.6,2.7-1.2,3.9c-0.5,1.1-1.2,2-2.1,2.9c-0.8,0.8-1.7,1.5-2.7,2.1c-1.2,0.6-2.5,1-3.8,1.2c-1.9,0.3-3.8,0.5-5.8,0.6
			c-2.3,0.1-5.1,0.2-8.4,0.2h-44c-3.3,0-6.1-0.1-8.4-0.2c-1.9-0.1-3.9-0.3-5.8-0.6c-1.3-0.2-2.6-0.6-3.8-1.2c-1-0.6-1.9-1.3-2.7-2.1
			c-0.8-0.8-1.5-1.8-2.1-2.9c-0.6-1.2-1-2.6-1.2-3.9c-0.3-1.9-0.5-3.8-0.6-5.7c-0.1-2.3-0.2-5-0.2-8.2L292.2,137.1L292.2,137.1z
			 M407.9,132.9c0-7.9-0.7-14.2-2.2-19c-1.4-4.7-4-9-7.5-12.4c-3.5-3.6-7.9-6.2-12.7-7.7c-4.9-1.5-11.2-2.3-18.9-2.3h-55.2
			c-7.7,0-14,0.8-18.9,2.3c-4.8,1.5-9.2,4.1-12.7,7.7c-3.6,3.4-6.2,7.7-7.5,12.4c-1.4,4.8-2.2,11.2-2.2,19v55.2
			c0,7.9,0.7,14.2,2.2,19c1.4,4.7,4,9,7.5,12.4c3.5,3.6,7.9,6.2,12.7,7.6c4.9,1.5,11.2,2.3,18.9,2.3h55.2c7.7,0,14-0.8,18.9-2.3
			c4.8-1.5,9.2-4.1,12.7-7.6c3.6-3.4,6.2-7.7,7.5-12.4c1.4-4.8,2.2-11.2,2.2-19V132.9z M144,91.6v137.8h111.6l2.9-20.7h-92.4V91.6
			H144z M119.8,112.3V91.6H0v137.8h22.1V171h95.1l2.7-20.7H22.1v-38L119.8,112.3L119.8,112.3z"/>
	</g>
</g>
</svg>
